<svg width="538" height="646" viewBox="0 0 538 646" fill="none" xmlns="http://www.w3.org/2000/svg">
<path d="M447.612 149.671C457.842 182.176 461.053 215.188 459.099 248.612C456.132 299.373 438.761 345.04 407.6 385.169C386.868 411.866 362.121 434.177 331.944 450.053C328.195 452.025 324.992 452.052 321.122 450.589C276.422 433.686 245.204 403.44 227.58 358.695C217.387 332.817 210.684 306.383 207.413 278.784C204.519 254.374 203.689 229.917 204.903 205.525C206.854 166.362 212.393 127.597 230.001 91.9421C242.929 65.7637 259.376 41.9713 284.415 25.4387C296.454 17.4901 309.426 11.6029 323.117 7.16098C326.326 6.11984 328.894 7.17505 331.661 8.51798C371.342 27.7776 400.288 58.3716 423.344 95.2035C433.923 112.102 441.866 130.176 447.612 149.671ZM436.033 184.304C425.955 132.634 402.536 88.3819 362.39 53.7914C346.945 40.4831 329.913 29.3376 310.392 22.6312C302.412 19.8894 293.199 23.6424 288.753 31.2034C289.984 33.247 292.235 33.6535 294.215 34.335C329.401 46.446 357.524 68.4758 379.649 97.7511C420.45 151.738 431.913 212.667 418.071 278.253C409.518 318.774 390.079 353.884 360.151 382.926C342.136 400.407 321.278 413.639 298.946 424.771C296.805 425.838 294.301 426.537 292.937 428.837C294.893 431.794 297.924 433.05 300.319 435.059C303.743 437.931 307.214 438.473 311.313 436.168C315.509 433.808 320.16 432.249 324.327 429.845C360.571 408.926 389.75 380.927 410.385 344.233C429.963 309.418 439.8 272.037 440.611 232.226C440.934 216.389 438.739 200.733 436.033 184.304ZM367.384 149.28C387.449 189.487 392.397 231.802 380.984 274.941C363.916 339.46 319.964 378.632 257.361 399.167C258.75 400.892 259.813 402.354 261.019 403.687C271.351 415.113 266.712 414.301 280.494 408.636C355.304 377.889 396.12 321.728 403.47 241.416C405.061 224.024 403.551 206.527 399.616 189.363C387.33 135.773 359.164 93.5082 310.8 66.0548C297.654 58.5921 283.629 52.6893 268.486 50.1398C267.166 49.9176 265.781 49.314 264.772 50.5842C261.616 54.5605 258.309 58.4715 256.582 64.2782C306.494 75.746 343.562 103.414 367.384 149.28ZM243.912 84.4119C242.444 84.3163 241.253 84.8318 240.626 86.1904C238.701 90.3667 236.372 94.3996 235.57 99.0382C238.648 101.254 242.138 100.94 245.312 101.674C274.37 108.391 299.764 121.49 318.591 145.156C344.583 177.827 353.712 214.762 346.496 256.122C336.469 313.59 289.047 351.582 245.647 360.47C237.262 362.188 237.135 362.395 241.136 369.778C241.85 371.096 242.712 372.349 243.282 373.724C244.373 376.351 246.333 377.097 248.916 376.561C255.582 375.178 262.31 374.035 268.704 371.571C338.785 344.57 373.236 279.518 365.373 210.688C361.178 173.967 344.761 142.764 316.904 118.138C296.23 99.8614 272.275 88.1839 243.912 84.4119ZM319.141 186.323C313.946 173.862 306.543 162.766 297.053 153.288C279.032 135.288 257.245 124.672 231.852 121.662C229.058 121.331 226.574 121.968 225.764 124.747C224.631 128.634 222.176 132.394 223.629 136.686C223.821 137.252 225.37 137.461 226.328 137.646C230.078 138.369 233.867 138.907 237.599 139.709C285.018 149.903 314.39 192.564 311.12 238.358C308.153 279.903 274.888 315.883 233.818 323.498C223.384 325.432 222.642 323.077 226.975 335.926C228.546 340.585 231.33 341.217 235.323 340.497C263.938 335.336 287.697 321.225 305.33 298.569C331.795 264.562 335.312 226.804 319.141 186.323ZM282.509 264.082C299.421 232.188 290.22 193.6 260.548 172.224C248.92 163.848 235.874 159.334 221.588 158.414C219.422 158.275 216.99 158.056 216.548 161.089C216.045 164.537 215.681 168.008 215.362 171.479C215.095 174.387 216.447 175.67 219.45 175.728C226.367 175.861 232.862 177.91 239.187 180.562C273.983 195.15 288.212 242.625 253.214 272.057C243.324 280.374 231.746 284.494 219.178 286.332C217.709 286.547 215.808 286.37 215.608 288.301C215.099 293.193 215.895 298.226 218.369 302.217C220.254 305.257 224.442 303.674 227.679 303.091C251.786 298.75 269.763 285.709 282.509 264.082ZM212.315 227.547C212.302 230.046 212.198 232.549 212.293 235.044C212.646 244.347 211.601 253.688 213.197 262.963C213.654 265.622 214.801 266.842 217.524 266.439C226.066 265.173 233.959 262.388 240.76 256.858C251.525 248.105 256.115 234.22 252.177 222.056C247.914 208.893 233.655 197.147 221.057 196.422C214.898 196.067 213.846 197.153 213.124 203.098C212.176 210.905 212.416 218.726 212.315 227.547Z" fill="white"/>
<path d="M183.446 439.215C167.171 439.293 151.344 439.322 135.517 439.324C125.397 439.325 124.658 438.601 124.658 428.634C124.654 382.816 124.667 336.999 124.667 291.181C124.665 204.211 124.658 117.241 124.655 30.271C124.654 22.1427 125.071 21.7354 133.081 21.739C149.075 21.7464 165.069 21.7377 181.064 21.7411C187.451 21.7425 188.356 22.5782 188.339 28.8861C188.218 73.8699 188.493 118.86 187.798 163.835C187.239 199.988 186.977 236.141 187.571 272.277C188.435 324.922 187.966 377.563 188.236 430.205C188.255 433.863 188.668 437.788 183.446 439.215Z" fill="white"/>
<path d="M58.7915 439.522C42.5166 439.6 26.6893 439.629 10.8619 439.63C0.742036 439.631 0.00369234 438.908 0.00283834 428.94C-0.00112966 383.123 0.012482 337.305 0.011841 291.488C0.010621 204.518 0.0036312 117.548 2.02705e-07 30.5776C-0.000335797 22.4493 0.416077 22.042 8.42621 22.0457C24.4204 22.053 40.4146 22.0443 56.4088 22.0478C62.7962 22.0491 63.7013 22.8849 63.6843 29.1928C63.5633 74.1766 63.8385 119.167 63.1433 164.142C62.5845 200.295 62.3228 236.448 62.9161 272.584C63.7806 325.229 63.3116 377.87 63.5816 430.512C63.6004 434.17 64.013 438.094 58.7915 439.522Z" fill="white"/>
<path d="M433.63 376.727C455.021 343.84 468.442 308.366 473.803 269.823C480.001 225.272 476.804 181.495 462.153 138.92C444.07 86.373 413.056 42.8225 369.085 8.64919C366.12 6.34465 363.165 4.02644 360.075 1.61221C361.965 0.0784616 363.516 0.950273 365.071 1.27736C383.071 5.06133 398.072 14.4201 411.39 26.6483C446.787 59.1495 470.002 99.0419 483.348 145.04C492.564 176.807 496.733 209.139 495.258 242.123C492.863 295.662 478.207 345.373 446.922 389.375C432.492 409.67 415.927 428.147 394.931 442.13C385.852 448.176 376.214 452.965 365.68 455.876C364.399 456.23 363.103 456.548 361.797 456.784C361.387 456.858 360.919 456.607 359.585 456.299C388.681 433.481 413.646 407.634 433.63 376.727Z" fill="white"/>
<path d="M471.703 381.808C491.016 349.725 502.939 315.407 508.771 278.827C512.219 257.207 513.568 235.469 512.528 213.675C510.761 176.656 502.94 140.889 488.13 106.809C471.258 67.9855 446.801 34.6842 414.821 6.93018C413.564 5.83939 412.196 4.87775 410.924 3.80366C409.826 2.87676 408.12 2.58231 407.735 0.760687C409.126 -0.874444 410.492 0.576895 411.681 0.964377C429.087 6.63689 443.175 17.3448 455.693 30.3336C491.157 67.1291 512.447 111.147 522.37 161.011C527.62 187.39 529.846 214.016 529.002 240.85C527.048 303.013 510.055 360.218 471.493 409.887C455.964 429.889 437.494 446.493 412.85 454.795C411.356 455.298 409.938 456.427 407.091 455.373C434.174 435.356 454.504 410.167 471.703 381.808Z" fill="white"/>
<path d="M462.655 6.31407C510.872 36.7298 536.775 79.1419 535.038 136.874C519.072 85.835 494.01 40.312 453.808 3.20517C457.599 2.88339 459.741 5.20053 462.655 6.31407Z" fill="white"/>
<path d="M506.276 413.286C492.096 429.889 476.181 443.642 455.645 451.587C496.115 415.76 520.705 370.435 535.678 318.781C542.945 338.846 527.678 387.389 506.276 413.286Z" fill="white"/>
<path d="M401.179 508.417V475.046H522V508.417H481.261V644.32H441.918V508.417H401.179Z" fill="white"/>
<path d="M345.931 644.32V475.046H385.275V644.32H345.931Z" fill="white"/>
<path d="M278.406 610.465C278.406 603.211 282.033 597.81 289.288 594.263C292.45 592.812 295.799 592.087 299.333 592.087C307.704 592.087 313.843 595.231 317.749 601.518C319.423 604.259 320.26 607.241 320.26 610.465C320.26 617.881 316.54 623.201 309.099 626.426C306.123 627.876 302.867 628.602 299.333 628.602C290.776 628.602 284.637 625.378 280.917 618.929C279.243 616.188 278.406 613.367 278.406 610.465ZM278.406 540.337C278.406 533.083 282.033 527.682 289.288 524.135C292.45 522.684 295.799 521.959 299.333 521.959C307.704 521.959 313.843 525.103 317.749 531.39C319.423 534.131 320.26 537.113 320.26 540.337C320.26 547.753 316.54 553.073 309.099 556.298C305.937 557.748 302.681 558.474 299.333 558.474C290.776 558.474 284.637 555.25 280.917 548.801C279.243 546.06 278.406 543.239 278.406 540.337Z" fill="white"/>
<path d="M155.353 644.32V475.046H194.696V610.465H260.269V644.32H155.353Z" fill="white"/>
<path d="M15 606.113L50.437 595.231C50.437 599.261 51.7391 602.808 54.3434 605.871C56.9477 608.934 59.552 610.949 62.1563 611.916L66.0627 613.609V645.046C50.251 645.046 36.7644 639.081 25.6032 627.151C18.7204 619.574 15.186 612.561 15 606.113ZM17.2323 521.475C17.2323 503.742 25.9752 490.442 43.4612 481.575C51.4601 477.383 58.9939 475.207 66.0627 475.046V506.966C61.4122 508.094 57.9708 510.996 55.7386 515.672C54.9945 517.122 54.6225 518.654 54.6225 520.266C54.6225 526.876 60.2961 532.518 71.6434 537.194C74.0616 538.161 77.9681 539.612 83.3627 541.546C92.2917 544.609 98.6164 547.108 102.337 549.043C117.405 556.781 127.45 564.681 132.472 572.741C136.193 579.029 138.053 586.041 138.053 593.78C138.053 608.45 131.635 621.025 118.8 631.504C107.824 640.532 95.361 645.046 81.4095 645.046V613.609C88.6643 612.803 93.7799 609.498 96.7562 603.694C98.0583 601.115 98.7094 598.294 98.7094 595.231C98.7094 587.009 91.6406 580.238 77.503 574.918C74.8987 573.95 70.8063 572.58 65.2257 570.807C58.7149 568.872 54.1574 567.341 51.5531 566.212C35.5553 559.602 25.3242 551.058 20.8597 540.579C18.4414 534.937 17.2323 528.569 17.2323 521.475ZM81.4095 506.966V475.046C97.0352 475.046 110.15 480.769 120.753 492.215C126.892 498.986 130.054 505.112 130.24 510.593L93.9659 520.992C93.9659 514.221 90.1525 509.626 82.5256 507.208C81.7815 507.047 81.4095 506.966 81.4095 506.966Z" fill="white"/>
</svg>
