<svg width="507" height="170" viewBox="0 0 507 170" fill="none" xmlns="http://www.w3.org/2000/svg">
<path d="M386.179 33.3713V0H507V33.3713H466.261V169.275H426.918V33.3713H386.179Z" fill="white"/>
<path d="M330.931 169.275V0H370.275V169.275H330.931Z" fill="white"/>
<path d="M263.406 135.42C263.406 128.165 267.033 122.764 274.288 119.218C277.45 117.767 280.799 117.041 284.333 117.041C292.704 117.041 298.843 120.185 302.749 126.472C304.423 129.213 305.26 132.195 305.26 135.42C305.26 142.836 301.54 148.156 294.099 151.38C291.123 152.831 287.867 153.556 284.333 153.556C275.776 153.556 269.637 150.332 265.917 143.883C264.243 141.143 263.406 138.322 263.406 135.42ZM263.406 65.2917C263.406 58.0371 267.033 52.6364 274.288 49.0897C277.45 47.6388 280.799 46.9133 284.333 46.9133C292.704 46.9133 298.843 50.057 302.749 56.3443C304.423 59.085 305.26 62.0674 305.26 65.2917C305.26 72.7075 301.54 78.0276 294.099 81.2519C290.937 82.7028 287.681 83.4283 284.333 83.4283C275.776 83.4283 269.637 80.204 265.917 73.7554C264.243 71.0148 263.406 68.1936 263.406 65.2917Z" fill="white"/>
<path d="M140.353 169.275V0H179.696V135.42H245.269V169.275H140.353Z" fill="white"/>
<path d="M0 131.067L35.437 120.185C35.437 124.215 36.7391 127.762 39.3434 130.825C41.9477 133.888 44.552 135.903 47.1563 136.871L51.0627 138.563V170C35.251 170 21.7644 164.035 10.6032 152.105C3.72042 144.528 0.186021 137.515 0 131.067ZM2.23225 46.4296C2.23225 28.6961 10.9752 15.3959 28.4612 6.52916C36.4601 2.3376 43.9939 0.161214 51.0627 0V31.9203C46.4122 33.0488 42.9708 35.9507 40.7386 40.6259C39.9945 42.0768 39.6225 43.6083 39.6225 45.2205C39.6225 51.8303 45.2961 57.4727 56.6434 62.1479C59.0616 63.1152 62.9681 64.5661 68.3627 66.5007C77.2917 69.5638 83.6164 72.0626 87.3368 73.9972C102.405 81.7354 112.45 89.6349 117.472 97.6956C121.193 103.983 123.053 110.996 123.053 118.734C123.053 133.404 116.635 145.979 103.8 156.458C92.8244 165.486 80.361 170 66.4095 170V138.563C73.6643 137.757 78.7799 134.452 81.7562 128.649C83.0583 126.069 83.7094 123.248 83.7094 120.185C83.7094 111.963 76.6406 105.192 62.503 99.872C59.8987 98.9047 55.8063 97.5344 50.2257 95.761C43.7149 93.8265 39.1574 92.2949 36.5531 91.1664C20.5553 84.5567 10.3242 76.0123 5.85966 65.5334C3.44139 59.8909 2.23225 53.523 2.23225 46.4296ZM66.4095 31.9203V0C82.0352 0 95.1497 5.72309 105.753 17.1693C111.892 23.9403 115.054 30.0664 115.24 35.5477L78.9659 45.9459C78.9659 39.175 75.1525 34.5804 67.5256 32.1622C66.7815 32.0009 66.4095 31.9203 66.4095 31.9203Z" fill="white"/>
</svg>
